<?xml version="1.0" encoding="UTF-8" standalone="no"?><!DOCTYPE svg PUBLIC "-//W3C//DTD SVG 1.1//EN" "http://www.w3.org/Graphics/SVG/1.1/DTD/svg11.dtd"><svg width="100%" height="100%" viewBox="0 0 1000 1000" version="1.1" xmlns="http://www.w3.org/2000/svg" xmlns:xlink="http://www.w3.org/1999/xlink" xml:space="preserve" xmlns:serif="http://www.serif.com/" style="fill-rule:evenodd;clip-rule:evenodd;"><g><path d="M1000,10c0,-5.519 -4.481,-10 -10,-10l-980,0c-5.519,0 -10,4.481 -10,10l0,980c0,5.519 4.481,10 10,10l980,0c5.519,0 10,-4.481 10,-10l0,-980Z" style="fill:#fff;"/><path d="M328.549,969.697l-295.056,-295.056l-0,295.056l295.056,-0Z" style="fill:#80c403;fill-opacity:0.51;fill-rule:nonzero;"/><path d="M669.856,35.088l295.056,295.056l0,-295.056l-295.056,-0Z" style="fill:#ba96fd;fill-opacity:0.7;fill-rule:nonzero;"/><path d="M240.032,129.187l112.569,230.382l-225.139,0l112.57,-230.382Z" style="fill:#ba96fd;fill-opacity:0.7;fill-rule:nonzero;"/><path d="M112.886,468.9l-46.65,-0l147.483,-347.451l49.811,-0l148.213,347.451l-49.81,-0l-44.951,-109.339l-114.925,0l12.391,-36.445l87.471,0l-64.874,-157.446l-124.159,303.23Zm264.132,-0l-0,-347.451l44.949,-0l212.601,279.903l-0,-279.903l42.52,-0l-0,347.451l-44.949,-0l-212.602,-282.334l0,282.334l-42.519,-0Zm552.295,-347.451l-0,36.446l-208.227,274.558l203.367,-0l-0,36.447l-257.55,-0l-0,-36.447l214.788,-274.558l-209.929,-0l0,-36.446l257.551,-0Z" style="fill:#404040;fill-rule:nonzero;"/><ellipse cx="681.818" cy="709.729" rx="158.692" ry="148.325" style="fill:#80c403;fill-opacity:0.51;"/><path d="M216.598,537.716l0,347.451l-44.949,0l0,-347.451l44.949,0Zm89.793,347.451l-49.809,0l176.155,-347.451l49.81,0l-176.156,347.451Zm243.839,-174.697c-0,93.788 42.357,140.682 127.073,140.682c82.935,-0 124.402,-46.894 124.402,-140.682c-0,-92.491 -41.467,-138.736 -124.402,-138.736c-84.716,-0 -127.073,46.245 -127.073,138.736Zm-47.38,1.458c0,-117.761 58.15,-176.641 174.453,-176.641c114.522,0 171.782,58.88 171.782,176.641c-0,117.113 -57.26,175.668 -171.782,175.668c-116.303,0 -174.453,-58.555 -174.453,-175.668Z" style="fill:#404040;fill-rule:nonzero;"/><path d="M1000,10c0,-5.519 -4.481,-10 -10,-10l-980,0c-5.519,0 -10,4.481 -10,10l0,980c0,5.519 4.481,10 10,10l980,0c5.519,0 10,-4.481 10,-10l0,-980Z" style="fill:none;stroke:#404040;stroke-width:70.18px;"/></g></svg>