<svg width="627" height="627" viewBox="0 0 627 627" fill="none" xmlns="http://www.w3.org/2000/svg">
<g clip-path="url(#clip0_1_2)">
<rect width="627" height="627" rx="10" fill="white"/>
<path d="M206 608L21 423V608H206Z" fill="#80C403" fill-opacity="0.51"/>
<path d="M420 22L605 207V22L420 22Z" fill="#BA96FD" fill-opacity="0.7"/>
<path d="M150.5 81L221.081 225.45H79.9189L150.5 81Z" fill="#BA96FD" fill-opacity="0.7"/>
<path d="M70.7797 294H41.5297L134.002 76.1484H165.233L258.163 294H226.932L198.748 225.445H126.69L134.459 202.594H189.303L148.627 103.875L70.7797 294ZM236.39 294V76.1484H264.573L397.874 251.648V76.1484H424.534V294H396.351L263.05 116.977V294H236.39ZM582.679 76.1484V99L452.121 271.148H579.632V294H418.148V271.148L552.82 99H421.195V76.1484H582.679Z" fill="#404040"/>
<ellipse cx="427.5" cy="445" rx="99.5" ry="93" fill="#80C403" fill-opacity="0.51"/>
<path d="M135.807 337.148V555H107.624V337.148H135.807ZM192.107 555H160.877L271.326 337.148H302.557L192.107 555ZM344.994 445.465C344.994 504.27 371.552 533.672 424.669 533.672C476.669 533.672 502.669 504.27 502.669 445.465C502.669 387.473 476.669 358.477 424.669 358.477C371.552 358.477 344.994 387.473 344.994 445.465ZM315.287 446.379C315.287 372.543 351.747 335.625 424.669 335.625C496.474 335.625 532.376 372.543 532.376 446.379C532.376 519.809 496.474 556.523 424.669 556.523C351.747 556.523 315.287 519.809 315.287 446.379Z" fill="#404040"/>
<g style="mix-blend-mode:hue">
<rect x="-69" y="294" width="690" height="388" fill="#80C403"/>
</g>
<mask id="path-9-inside-1_1_2" fill="white">
<rect width="627" height="627" rx="10"/>
</mask>
<rect width="627" height="627" rx="10" stroke="#404040" stroke-width="44" mask="url(#path-9-inside-1_1_2)"/>
</g>
<defs>
<clipPath id="clip0_1_2">
<rect width="627" height="627" rx="10" fill="white"/>
</clipPath>
</defs>
</svg>
