<?xml version="1.0" encoding="UTF-8" standalone="no"?><!DOCTYPE svg PUBLIC "-//W3C//DTD SVG 1.1//EN" "http://www.w3.org/Graphics/SVG/1.1/DTD/svg11.dtd"><svg width="100%" height="100%" viewBox="0 0 576 512" version="1.1" xmlns="http://www.w3.org/2000/svg" xmlns:xlink="http://www.w3.org/1999/xlink" xml:space="preserve" xmlns:serif="http://www.serif.com/" style="fill-rule:evenodd;clip-rule:evenodd;stroke-linecap:round;stroke-linejoin:round;stroke-miterlimit:1.5;"><path d="M576,52.385c0,-28.912 -23.473,-52.385 -52.385,-52.385l-471.227,0c-28.912,0 -52.385,23.473 -52.385,52.385l0,407.23c0,28.912 23.473,52.385 52.385,52.385l471.227,0c28.912,0 52.385,-23.473 52.385,-52.385l0,-407.23Z" style="fill:#fff;stroke:#000;stroke-width:1px;"/><path d="M532.945,202.342l-19.566,-19.565c-5.403,-5.404 -14.161,-5.404 -19.565,-0l-9.778,9.778l-24.987,-24.986c4.868,-18.425 0.311,-38.82 -14.136,-53.267l-39.122,-39.123c-54.019,-54.019 -141.61,-54.019 -195.638,0l78.253,39.123l0,16.211c0,14.672 5.828,28.747 16.211,39.122l42.486,42.486c14.447,14.447 34.843,19.003 53.267,14.136l24.986,24.986l-9.778,9.778c-5.404,5.404 -5.404,14.162 -0,19.566l19.565,19.565c5.404,5.404 14.162,5.404 19.566,0l78.253,-78.253c5.387,-5.395 5.387,-14.153 -0.017,-19.557Zm-247.893,-13.141c-3.199,-3.199 -5.914,-6.736 -8.516,-10.332l-220.555,205.917c-22.108,20.647 -22.704,55.498 -1.323,76.888c21.381,21.39 56.241,20.793 76.887,-1.323l205.883,-220.529c-3.423,-2.516 -6.83,-5.075 -9.891,-8.136l-42.485,-42.485Z" style="fill-rule:nonzero;stroke:#fff;stroke-width:0.86px;stroke-linecap:butt;stroke-miterlimit:2;"/></svg>