<?xml version="1.0" encoding="UTF-8" standalone="no"?><!DOCTYPE svg PUBLIC "-//W3C//DTD SVG 1.1//EN" "http://www.w3.org/Graphics/SVG/1.1/DTD/svg11.dtd"><svg width="100%" height="100%" viewBox="0 0 4800 4800" version="1.1" xmlns="http://www.w3.org/2000/svg" xmlns:xlink="http://www.w3.org/1999/xlink" xml:space="preserve" xmlns:serif="http://www.serif.com/" style="fill-rule:evenodd;clip-rule:evenodd;stroke-linejoin:round;stroke-miterlimit:2;"><path d="M4802.47,720c-0,-397.379 -322.622,-720 -720,-720l-3364.93,0c-397.378,0 -720,322.621 -720,720l0,3360c0,397.379 322.622,720 720,720l3364.93,-0c397.378,-0 720,-322.621 720,-720l-0,-3360Z" style="fill:#fff;"/><g id="ink_ext_XXXXXX"><g id="g12"><path id="path14" d="M2230.72,376.938c102.515,-58.686 236.044,-58.946 338.465,-0c515.282,291.158 1030.73,581.869 1545.93,873.205c96.903,54.584 161.721,162.429 160.742,274.085l0,1751.76c0.719,116.278 -70.502,226.695 -172.736,280.04c-513.595,289.566 -1026.93,579.475 -1540.43,869.041c-104.629,59.82 -240.833,55.208 -342.203,-9.516c-153.976,-89.262 -308.212,-178.076 -462.198,-267.255c-31.471,-18.76 -66.941,-33.689 -89.158,-64.193c19.635,-26.475 54.761,-29.775 83.297,-41.331c64.266,-20.447 123.306,-53.251 182.345,-85.087c14.929,-10.213 33.158,-6.299 47.473,2.842c131.666,75.499 262.175,153.184 394.278,227.955c28.182,16.272 56.718,-5.331 80.808,-18.761c503.997,-284.849 1008.61,-568.616 1512.51,-853.549c18.677,-8.985 28.995,-28.807 27.485,-49.264c0.344,-577.861 0.083,-1155.83 0.177,-1733.7c2.134,-23.205 -11.296,-44.537 -32.284,-54.042c-511.805,-288.233 -1023.36,-576.904 -1535.08,-865.21c-18.146,-12.482 -42.101,-12.514 -60.278,-0.094c-511.732,288.4 -1023.19,577.341 -1534.91,865.554c-20.909,9.515 -34.942,30.503 -32.452,53.792c0.087,577.872 -0,1155.84 -0,1733.79c-1.818,20.436 9.287,39.842 27.829,48.639c136.555,77.435 273.288,154.319 409.932,231.494c76.98,41.435 171.498,66.057 256.311,34.314c74.845,-26.849 127.305,-103.223 125.878,-182.688c0.708,-574.499 -0.354,-1149.08 0.531,-1723.49c-1.863,-25.507 22.321,-46.578 47.12,-44.173c65.619,-0.448 131.311,-0.885 196.93,0.177c27.38,-0.625 46.234,26.839 42.851,52.533c-0.271,578.132 0.697,1156.29 -0.448,1734.41c0.177,154.08 -63.12,321.736 -205.644,397.13c-175.574,90.949 -392.586,71.658 -566.041,-15.553c-150.161,-74.948 -293.462,-163.398 -440.958,-243.686c-102.498,-53.053 -173.367,-163.918 -172.645,-280.112l-0,-1751.77c-1.076,-113.967 66.319,-223.77 166.24,-277.552c513.506,-289.795 1026.93,-579.819 1540.34,-869.738" style="fill:#81cd39;fill-rule:nonzero;"/><path id="path16" d="M2678.71,1590.39c223.957,-14.419 463.718,-8.537 665.26,101.787c156.037,84.556 242.541,261.998 245.289,435.348c-4.352,23.382 -28.796,36.281 -51.117,34.678c-64.984,-0.083 -129.979,0.885 -194.952,-0.437c-27.568,1.062 -43.59,-24.361 -47.047,-48.723c-18.677,-82.942 -63.912,-165.094 -141.982,-205.103c-119.839,-59.997 -258.792,-56.978 -389.478,-55.729c-95.394,5.06 -197.982,13.326 -278.812,69.419c-62.048,42.497 -80.891,128.282 -58.748,197.379c20.884,49.607 78.144,65.608 125.003,80.361c269.899,70.595 555.905,63.568 820.651,156.463c109.615,37.875 216.836,111.5 254.357,226.258c49.076,153.82 27.567,337.664 -81.871,461.146c-88.741,101.609 -217.991,156.922 -346.908,186.957c-171.497,38.239 -349.47,39.218 -523.632,22.238c-163.772,-18.677 -334.197,-61.695 -460.615,-173.278c-108.116,-93.874 -160.92,-240.135 -155.672,-381.295c1.249,-23.841 24.985,-40.467 47.827,-38.509c65.432,-0.531 130.874,-0.708 196.306,0.093c26.141,-1.874 45.516,20.718 46.859,45.35c12.066,79.028 41.768,161.971 110.677,208.819c132.998,85.806 299.872,79.934 452.151,82.329c126.158,-5.591 267.786,-7.288 370.738,-90.668c54.314,-47.567 70.409,-127.136 55.729,-195.598c-15.897,-57.79 -76.363,-84.723 -128.281,-102.327c-266.444,-84.286 -555.645,-53.699 -819.507,-149.02c-107.127,-37.854 -210.714,-109.428 -251.868,-219.481c-57.426,-155.756 -31.118,-348.418 89.793,-467.725c117.882,-118.683 288.056,-164.387 449.85,-180.742l0,0.01" style="fill:#81cd39;fill-rule:nonzero;"/></g></g></svg>